<svg id="girl-svg" width="100" height="150" viewBox="0 0 100 150" xmlns="http://www.w3.org/2000/svg">
    <defs>
        <pattern id="stripes" patternUnits="userSpaceOnUse" width="6" height="6" patternTransform="rotate(45)">
            <line x1="0" y1="0" x2="0" y2="6" stroke="#FF69B4" stroke-width="3" />
        </pattern>
        <pattern id="dress-pattern" patternUnits="userSpaceOnUse" width="10" height="10">
            <circle cx="5" cy="5" r="2" fill="#FFFFFF" fill-opacity="0.5"/>
        </pattern>
    </defs>

    <!-- Braids -->
    <g transform="translate(-5, 0)">
        <path d="M 30 40 C 25 45, 35 50, 30 55 C 25 60, 35 65, 30 70" fill="none" stroke="#D40000" stroke-width="6" stroke-linecap="round"/>
        <path d="M 30 40 C 35 45, 25 50, 30 55 C 35 60, 25 65, 30 70" fill="none" stroke="#FF2D2D" stroke-width="3" stroke-linecap="round"/>
    </g>
    <g transform="translate(5, 0)">
        <path d="M 70 40 C 75 45, 65 50, 70 55 C 75 60, 65 65, 70 70" fill="none" stroke="#D40000" stroke-width="6" stroke-linecap="round"/>
        <path d="M 70 40 C 65 45, 75 50, 70 55 C 65 60, 75 65, 70 70" fill="none" stroke="#FF2D2D" stroke-width="3" stroke-linecap="round"/>
    </g>

    <!-- Legs & Shoes -->
    <g>
        <rect x="42" y="95" width="10" height="40" rx="3" fill="#F5CBA7"/>
        <rect x="58" y="95" width="10" height="40" rx="3" fill="#F5CBA7"/>
        <rect x="42" y="115" width="10" height="20" fill="url(#stripes)"/>
        <rect x="58" y="115" width="10" height="20" fill="url(#stripes)"/>
        <path d="M 40 135 C 35 145, 55 145, 50 135 L 40 135 Z" fill="#8B4513"/>
        <path d="M 56 135 C 51 145, 71 145, 66 135 L 56 135 Z" fill="#8B4513"/>
        <path d="M 42 136 L 48 136" stroke="#FFFFFF" stroke-width="0.5"/>
        <path d="M 58 136 L 64 136" stroke="#FFFFFF" stroke-width="0.5"/>
    </g>

    <!-- Arms -->
    <g>
        <rect x="30" y="55" width="8" height="35" rx="4" fill="#F5CBA7" transform="rotate(-10, 34, 72.5)"/>
        <rect x="72" y="55" width="8" height="35" rx="4" fill="#F5CBA7" transform="rotate(10, 76, 72.5)"/>
    </g>

    <!-- Body -->
    <g>
        <rect x="40" y="50" width="30" height="50" rx="5" fill="#4A90E2"/>
        <rect x="40" y="50" width="30" height="50" rx="5" fill="url(#dress-pattern)"/>
        <path d="M 40 50 C 45 55, 55 55, 60 50 L 70 50 L 40 50 Z" fill="#FFFFFF" fill-opacity="0.8"/>
        <rect x="45" y="70" width="20" height="5" fill="#FFD700"/>
    </g>

    <!-- Head -->
    <g>
        <circle cx="50" cy="30" r="20" fill="#F5CBA7"/>
        <path d="M 40 15 C 45 20, 55 20, 60 15" fill="#000000" fill-opacity="0.1"/>
    </g>

    <!-- Hair (front) -->
    <g>
        <path d="M 30 20 C 40 10, 60 10, 70 20 C 70 25, 30 25, 30 20 Z" fill="#FF0000"/>
        <path d="M 32 22 C 40 15, 60 15, 68 22" fill="none" stroke="#FF4500" stroke-width="1.5"/>
    </g>

    <!-- Face -->
    <g>
        <circle cx="44" cy="28" r="3" fill="#FFFFFF"/>
        <circle cx="56" cy="28" r="3" fill="#FFFFFF"/>
        <circle cx="44" cy="28" r="1.5" fill="#4169E1"/>
        <circle cx="56" cy="28" r="1.5" fill="#4169E1"/>
        <circle cx="44.5" cy="27.5" r="0.5" fill="#FFFFFF"/>
        <circle cx="56.5" cy="27.5" r="0.5" fill="#FFFFFF"/>
        <path d="M 48 35 C 50 37, 52 37, 54 35" stroke="#C0392B" stroke-width="1" fill="none" stroke-linecap="round"/>
    </g>
</svg>