<svg id="girl-svg" width="100" height="150" viewBox="0 0 100 150" xmlns="http://www.w3.org/2000/svg">
    <defs>
        <pattern id="stripes" patternUnits="userSpaceOnUse" width="8" height="8" patternTransform="rotate(45)">
            <line x1="0" y1="0" x2="0" y2="8" stroke="#FFC0CB" stroke-width="4" />
        </pattern>
    </defs>

    <!-- Hair -->
    <circle cx="50" cy="30" r="22" fill="#FF0000"/>
    <rect x="25" y="30" width="10" height="40" rx="5" fill="#FF0000"/>
    <rect x="65" y="30" width="10" height="40" rx="5" fill="#FF0000"/>

    <!-- Head -->
    <circle cx="50" cy="30" r="20" fill="#F5CBA7"/>
    <circle cx="45" cy="28" r="2" fill="#000"/>
    <circle cx="55" cy="28" r="2" fill="#000"/>
    <path d="M 45 35 q 5 5 10 0" stroke="#000" stroke-width="1" fill="none"/>

    <!-- Body -->
    <rect x="40" y="50" width="20" height="50" fill="#4A90E2"/>

    <!-- Arms -->
    <rect x="30" y="50" width="10" height="30" rx="5" fill="#F5CBA7" transform="rotate(-30, 35, 55)"/>
    <rect x="60" y="50" width="10" height="30" rx="5" fill="#F5CBA7" transform="rotate(30, 65, 55)"/>

    <!-- Legs -->
    <rect x="42" y="95" width="10" height="40" rx="5" fill="url(#stripes)" stroke="#F5CBA7" stroke-width="1"/>
    <rect x="48" y="95" width="10" height="40" rx="5" fill="url(#stripes)" stroke="#F5CBA7" stroke-width="1"/>


    <!-- Shoes -->
    <ellipse cx="47" cy="138" rx="8" ry="4" fill="#000"/>
    <ellipse cx="53" cy="138" rx="8" ry="4" fill="#000"/>
</svg>