<svg width="200" height="200" viewBox="0 0 200 200" xmlns="http://www.w3.org/2000/svg">
    <path d="M 50,150 C 40,150 30,140 30,120 C 30,100 40,80 60,80 C 80,80 100,100 120,100 C 140,100 160,80 180,80 C 200,80 210,100 210,120 C 210,140 200,150 190,150 L 50,150 Z" fill="white" stroke="black" stroke-width="2"/>
    <path d="M 60,80 C 60,60 70,40 90,40 C 110,40 110,60 110,80" fill="white" stroke="black" stroke-width="2"/>
    <path d="M 90,40 C 80,30 80,20 90,20 C 100,20 100,30 90,40" fill="white" stroke="black" stroke-width="2"/>
    <path d="M 180,80 L 190,110 L 180,110 L 170,80" fill="white" stroke="black" stroke-width="2"/>
    <path d="M 60,150 L 70,180 L 60,180 L 50,150" fill="white" stroke="black" stroke-width="2"/>
    <path d="M 170,150 L 180,180 L 170,180 L 160,150" fill="white" stroke="black" stroke-width="2"/>
    <path d="M 40,150 L 50,180 L 40,180 L 30,150" fill="white" stroke="black" stroke-width="2"/>
</svg>