<svg width="1920" height="1080" viewBox="0 0 1920 1080" xmlns="http://www.w3.org/2000/svg">
  <style>
    @keyframes walk-animals {
        from {
            transform: translateX(0);
        }
        to {
            transform: translateX(50px);
        }
    }

    .animal {
        animation: walk-animals 20s linear infinite alternate;
    }

    @keyframes fly-birds {
        from {
            transform: translateX(-100px);
        }
        to {
            transform: translateX(2000px);
        }
    }

    .bird {
        animation: fly-birds 30s linear infinite;
    }

    @keyframes move-clouds {
        from {
            transform: translateX(0);
        }
        to {
            transform: translateX(2000px);
        }
    }

    .cloud {
        animation: move-clouds 60s linear infinite;
    }
  </style>
  <path d="M0,1080 V850 C480,800 960,950 1440,850 C1920,750 1920,850 1920,850 V1080 H0 Z" fill="#3CB371"/>
  <g transform="translate(500, 800) scale(0.7)">
    <rect x="-10" y="50" width="20" height="50" fill="#8B4513"/>
    <circle cx="0" cy="25" r="30" fill="#228B22"/>
  </g>
  <g transform="translate(1200, 840) scale(0.6)">
    <rect x="-10" y="50" width="20" height="50" fill="#8B4513"/>
    <circle cx="0" cy="25" r="30" fill="#228B22"/>
  </g>
  <g transform="translate(600, 250) scale(1)">
    <g class="cloud">
      <circle cx="0" cy="0" r="45" fill="white" fill-opacity="0.7"/>
      <circle cx="45" cy="0" r="45" fill="white" fill-opacity="0.7"/>
      <circle cx="90" cy="0" r="45" fill="white" fill-opacity="0.7"/>
      <circle cx="22.5" cy="-22.5" r="45" fill="white" fill-opacity="0.7"/>
      <circle cx="67.5" cy="-22.5" r="45" fill="white" fill-opacity="0.7"/>
    </g>
  </g>
  <g transform="translate(300, 820) scale(0.5)">
    <g class="animal">
      <!-- horse -->
      <rect x="0" y="0" width="80" height="40" fill="#A0522D"/>
      <rect x="80" y="-20" width="20" height="40" fill="#A0522D"/>
      <rect x="10" y="40" width="10" height="20" fill="#A0522D"/>
      <rect x="60" y="40" width="10" height="20" fill="#A0522D"/>
    </g>
  </g>
  <g transform="translate(800, 860) scale(0.3)">
    <g class="animal">
      <!-- sheep -->
      <circle cx="20" cy="20" r="20" fill="white"/>
      <circle cx="0" cy="20" r="10" fill="lightgray"/>
    </g>
  </g>
  <g transform="translate(100, 200) scale(0.2)" class="bird">
      <path d="M 0,0 L 20,10 L 40,0 L 20,20 Z" fill="black"/>
  </g>
</svg>