<svg id="walking-girl-svg" width="100" height="150" viewBox="0 0 100 150" xmlns="http://www.w3.org/2000/svg">
    <defs>
        <pattern id="stripes" patternUnits="userSpaceOnUse" width="4" height="4" patternTransform="rotate(45)">
            <line x1="0" y1="0" x2="0" y2="4" stroke="#FF69B4" stroke-width="2" />
        </pattern>
    </defs>

    <!-- Hair (back) -->
    <path d="M 30 32 C 10 40, 10 60, 30 70 L 28 32 Z" fill="#FF0000"/>
    <path d="M 70 32 C 90 40, 90 60, 70 70 L 72 32 Z" fill="#FF0000"/>

    <!-- Legs -->
    <rect x="42" y="95" width="10" height="40" rx="3" fill="#F5CBA7" transform="rotate(-10, 47, 115)"/>
    <rect x="58" y="95" width="10" height="40" rx="3" fill="#F5CBA7" transform="rotate(10, 63, 115)"/>
    <rect x="42" y="115" width="10" height="20" fill="url(#stripes)" transform="rotate(-10, 47, 125)"/>
    <rect x="58" y="115" width="10" height="20" fill="url(#stripes)" transform="rotate(10, 63, 125)"/>

    <!-- Shoes -->
    <path d="M 35 135 C 30 145, 50 145, 45 135 Z" fill="#8B4513"/>
    <path d="M 55 135 C 50 145, 70 145, 65 135 Z" fill="#8B4513"/>

    <!-- Arms -->
    <rect x="30" y="55" width="8" height="35" rx="4" fill="#F5CBA7" transform="rotate(15, 34, 72.5)"/>
    <rect x="72" y="55" width="8" height="35" rx="4" fill="#F5CBA7" transform="rotate(-15, 76, 72.5)"/>

    <!-- Body -->
    <rect x="40" y="50" width="30" height="50" rx="5" fill="#4A90E2"/>
    <rect x="40" y="50" width="30" height="10" fill="#FFFFFF"/> <!-- Collar -->
    <rect x="45" y="70" width="20" height="5" fill="#FFD700"/> <!-- Belt -->


    <!-- Head -->
    <circle cx="50" cy="30" r="20" fill="#F5CBA7"/>

    <!-- Hair (front) -->
    <path d="M 30 20 C 40 10, 60 10, 70 20 C 70 25, 30 25, 30 20 Z" fill="#FF0000"/>
    <path d="M 32 22 C 40 15, 60 15, 68 22" fill="none" stroke="#FF4500" stroke-width="1.5"/>

    <!-- Face -->
    <circle cx="44" cy="28" r="3" fill="#FFFFFF"/>
    <circle cx="56" cy="28" r="3" fill="#FFFFFF"/>
    <circle cx="44" cy="28" r="1.5" fill="#4169E1"/>
    <circle cx="56" cy="28" r="1.5" fill="#4169E1"/>
    <circle cx="44.5" cy="27.5" r="0.5" fill="#FFFFFF"/>
    <circle cx="56.5" cy="27.5" r="0.5" fill="#FFFFFF"/>
    <path d="M 48 35 C 50 37, 52 37, 54 35" stroke="#C0392B" stroke-width="1" fill="none" stroke-linecap="round"/>

</svg>